<?xml version="1.0" encoding="UTF-8"?>
<svg version="1.1" xmlns="http://www.w3.org/2000/svg" width="500" height="500">
<path d="M0 0 C59.07 0 118.14 0 179 0 C179 18.81 179 37.62 179 57 C144.35 57 109.7 57 74 57 C74 64.92 74 72.84 74 81 C76.78171631 80.99476318 79.56343262 80.98952637 82.42944336 80.98413086 C91.59766479 80.96759618 100.76588686 80.95652927 109.93411922 80.94818783 C115.49539411 80.94295866 121.05665379 80.93586042 126.61791992 80.92456055 C131.98007419 80.91373285 137.34221378 80.90772342 142.70437813 80.90512276 C144.75500278 80.90326829 146.8056266 80.89964728 148.85624504 80.89426994 C151.71790203 80.88706107 154.57949757 80.88600899 157.44116211 80.88647461 C158.72617111 80.8810817 158.72617111 80.8810817 160.03713989 80.87557983 C165.88594784 80.88594784 165.88594784 80.88594784 167 82 C167.09868509 83.65191396 167.12798837 85.30803217 167.12939453 86.96289062 C167.13254669 88.02068726 167.13569885 89.07848389 167.13894653 90.16833496 C167.13591019 91.89485291 167.13591019 91.89485291 167.1328125 93.65625 C167.13376923 94.82885376 167.13472595 96.00145752 167.13571167 97.20959473 C167.1363937 99.69458062 167.13453784 102.17956829 167.13037109 104.66455078 C167.12502319 108.48343887 167.13031536 112.30220935 167.13671875 116.12109375 C167.13605797 118.52864609 167.13477682 120.93619837 167.1328125 123.34375 C167.13483673 124.49476196 167.13686096 125.64577393 167.13894653 126.83166504 C167.13421829 128.41835999 167.13421829 128.41835999 167.12939453 130.03710938 C167.12859894 130.97341187 167.12780334 131.90971436 167.12698364 132.87438965 C167 135 167 135 166 136 C163.13908182 136.09522418 160.30236379 136.12553326 157.44116211 136.11352539 C156.09495033 136.11374443 156.09495033 136.11374443 154.72154236 136.1139679 C151.74011866 136.11326842 148.7587566 136.10547441 145.77734375 136.09765625 C143.71611058 136.09579219 141.65487696 136.09436823 139.59364319 136.09336853 C134.1569599 136.08954237 128.72030314 136.07971126 123.28363037 136.06866455 C117.74052286 136.05845253 112.19741108 136.05387136 106.65429688 136.04882812 C95.76951769 136.03808908 84.8847652 136.02049149 74 136 C74 144.91 74 153.82 74 163 C109.97 163 145.94 163 183 163 C183 181.81 183 200.62 183 220 C122.61 220 62.22 220 0 220 C0 147.4 0 74.8 0 0 Z " fill="#38B6FE" transform="translate(41,142)"/>
<path d="M0 0 C26.73 0 53.46 0 81 0 C85.50311333 9.00622665 85.50311333 9.00622665 87.12109375 12.90625 C87.49266602 13.79892578 87.86423828 14.69160156 88.24707031 15.61132812 C88.63991211 16.56458984 89.03275391 17.51785156 89.4375 18.5 C89.85999023 19.52029297 90.28248047 20.54058594 90.71777344 21.59179688 C92.15028728 25.05911981 93.57611104 28.52912642 95 32 C95.26588928 32.64775391 95.53177856 33.29550781 95.8057251 33.96289062 C97.51087474 38.11818133 99.21152891 42.27528115 100.90750122 46.43432617 C101.4583822 47.78499926 102.0098512 49.13543271 102.5619812 50.4855957 C105.47501044 57.61450725 108.30694244 64.76195129 110.98046875 71.984375 C113.95307594 80.00231013 117.22377016 87.87880452 120.5625 95.75 C121.11943837 97.06888473 121.67607923 98.38789512 122.23242188 99.70703125 C123.04733601 101.63890638 123.86253461 103.57065649 124.67910767 105.50183105 C127.14141133 111.32541864 129.57516092 117.16073088 132 123 C134.76066271 120.23933729 135.86922589 116.9220476 137.34375 113.37109375 C137.83133286 112.21235748 137.83133286 112.21235748 138.32876587 111.0302124 C139.39094727 108.50141345 140.44565829 105.96957651 141.5 103.4375 C142.23400824 101.68456626 142.96822157 99.93171838 143.70263672 98.17895508 C147.99284758 87.91965438 152.18595718 77.62773447 156.27148438 67.28515625 C160.27858177 57.19073786 164.53829236 47.2063066 168.80004883 37.2175293 C169.3914772 35.83123383 169.98286748 34.44492211 170.57421875 33.05859375 C170.86381973 32.37975632 171.15342072 31.70091888 171.45179749 31.00151062 C174.71544197 23.33957347 177.90361466 15.64641395 181.06835938 7.94311523 C181.44412109 7.03376221 181.81988281 6.12440918 182.20703125 5.1875 C182.5316333 4.39730469 182.85623535 3.60710937 183.19067383 2.79296875 C184 1 184 1 185 0 C187.30053835 -0.09443335 189.60402173 -0.11742128 191.90649414 -0.11352539 C192.62840439 -0.11367142 193.35031464 -0.11381744 194.09410095 -0.1139679 C196.49114947 -0.11326869 198.88812123 -0.10547595 201.28515625 -0.09765625 C202.94282489 -0.0957921 204.60049407 -0.09436818 206.25816345 -0.09336853 C210.62954214 -0.08954312 215.00088781 -0.07971265 219.37225342 -0.06866455 C223.82954461 -0.05845092 228.28684111 -0.05387101 232.74414062 -0.04882812 C241.49610893 -0.0380904 250.24805036 -0.02101371 259 0 C258.32899734 4.40502629 257.32464373 7.92987448 255.4453125 11.98046875 C254.9186499 13.1303125 254.3919873 14.28015625 253.84936523 15.46484375 C253.56858124 16.07054199 253.28779724 16.67624023 252.99850464 17.30029297 C251.49448793 20.54972152 250.01762016 23.81137936 248.54296875 27.07421875 C248.24191727 27.74013031 247.94086578 28.40604187 247.63069153 29.09213257 C244.7485065 35.50039865 242.06435134 41.98307241 239.4375 48.5 C238.98616699 49.61802002 238.53483398 50.73604004 238.06982422 51.88793945 C237.15804819 54.15048876 236.24723656 56.41342695 235.33740234 58.67675781 C226.32780847 81.06423351 216.75773846 103.19519879 207.09667969 125.30810547 C202.22234305 136.47724178 197.4582005 147.65860813 193 159 C186.79430447 174.31033739 180.38883434 189.53315825 173.8125 204.6875 C173.52655975 205.34646271 173.24061951 206.00542542 172.9460144 206.68435669 C168.23765907 217.52468186 168.23765907 217.52468186 167 220 C142.25 220 117.5 220 92 220 C76.946 185.26 76.946 185.26 72.5 174.4375 C72.02820313 173.29861328 71.55640625 172.15972656 71.0703125 170.98632812 C68.79899964 165.48059045 66.59166563 159.95980966 64.48046875 154.390625 C62.13808068 148.26037913 59.52121791 142.28815614 56.8125 136.3125 C45.47545339 111.02383777 34.55129626 85.54444831 24.20401001 59.8347168 C19.72677018 48.7106465 15.02885264 37.69795249 10.19824219 26.72314453 C8.07781077 21.90421788 5.97029881 17.07990469 3.875 12.25 C3.4840918 11.36159424 3.09318359 10.47318848 2.69042969 9.55786133 C2.33625977 8.73954834 1.98208984 7.92123535 1.6171875 7.078125 C1.30378418 6.36043945 0.99038086 5.64275391 0.66748047 4.90332031 C0 3 0 3 0 0 Z " fill="#39B6FE" transform="translate(224,142)"/>
<path d="M0 0 C59.07 0 118.14 0 179 0 C179 18.81 179 37.62 179 57 C144.35 57 109.7 57 74 57 C74 64.92 74 72.84 74 81 C76.78171631 80.99476318 79.56343262 80.98952637 82.42944336 80.98413086 C91.59766479 80.96759618 100.76588686 80.95652927 109.93411922 80.94818783 C115.49539411 80.94295866 121.05665379 80.93586042 126.61791992 80.92456055 C131.98007419 80.91373285 137.34221378 80.90772342 142.70437813 80.90512276 C144.75500278 80.90326829 146.8056266 80.89964728 148.85624504 80.89426994 C151.71790203 80.88706107 154.57949757 80.88600899 157.44116211 80.88647461 C158.72617111 80.8810817 158.72617111 80.8810817 160.03713989 80.87557983 C165.88594784 80.88594784 165.88594784 80.88594784 167 82 C167.09868509 83.65191396 167.12798837 85.30803217 167.12939453 86.96289062 C167.13254669 88.02068726 167.13569885 89.07848389 167.13894653 90.16833496 C167.13591019 91.89485291 167.13591019 91.89485291 167.1328125 93.65625 C167.13376923 94.82885376 167.13472595 96.00145752 167.13571167 97.20959473 C167.1363937 99.69458062 167.13453784 102.17956829 167.13037109 104.66455078 C167.12502319 108.48343887 167.13031536 112.30220935 167.13671875 116.12109375 C167.13605797 118.52864609 167.13477682 120.93619837 167.1328125 123.34375 C167.13483673 124.49476196 167.13686096 125.64577393 167.13894653 126.83166504 C167.13421829 128.41835999 167.13421829 128.41835999 167.12939453 130.03710938 C167.12859894 130.97341187 167.12780334 131.90971436 167.12698364 132.87438965 C167 135 167 135 166 136 C163.13908182 136.09522418 160.30236379 136.12553326 157.44116211 136.11352539 C156.09495033 136.11374443 156.09495033 136.11374443 154.72154236 136.1139679 C151.74011866 136.11326842 148.7587566 136.10547441 145.77734375 136.09765625 C143.71611058 136.09579219 141.65487696 136.09436823 139.59364319 136.09336853 C134.1569599 136.08954237 128.72030314 136.07971126 123.28363037 136.06866455 C117.74052286 136.05845253 112.19741108 136.05387136 106.65429688 136.04882812 C95.76951769 136.03808908 84.8847652 136.02049149 74 136 C74 144.91 74 153.82 74 163 C73.67 163 73.34 163 73 163 C73 153.76 73 144.52 73 135 C103.36 135 133.72 135 165 135 C165 117.84 165 100.68 165 83 C134.64 83 104.28 83 73 83 C71.70638006 80.41276011 71.87051051 78.51886997 71.8671875 75.625 C71.86589844 74.55765625 71.86460938 73.4903125 71.86328125 72.390625 C71.86714844 71.27171875 71.87101562 70.1528125 71.875 69 C71.87113281 67.88109375 71.86726563 66.7621875 71.86328125 65.609375 C71.86457031 64.54203125 71.86585937 63.4746875 71.8671875 62.375 C71.86831543 61.39273438 71.86944336 60.41046875 71.87060547 59.3984375 C72 57 72 57 73 55 C107.32 55 141.64 55 177 55 C177 37.51 177 20.02 177 2 C154.6085253 1.95489926 132.21708723 1.91803775 109.82557869 1.89637566 C99.42943829 1.88605143 89.03332807 1.87196926 78.63720703 1.84912109 C69.57875292 1.82922224 60.52032064 1.81629191 51.46184528 1.81182301 C46.66292231 1.80920967 41.86406184 1.80304353 37.06515884 1.78853989 C32.55250372 1.77501128 28.03993712 1.77076774 23.52726364 1.77378464 C21.86716481 1.77323235 20.20706316 1.76922688 18.54698181 1.76158905 C16.28797554 1.75170149 14.02930759 1.75400819 11.77029419 1.75949097 C10.50375063 1.75764738 9.23720707 1.75580379 7.9322834 1.75390434 C4.87703478 1.69263681 4.87703478 1.69263681 3 4 C2.80653645 6.82080724 2.73961006 9.5430861 2.75949097 12.36477661 C2.75778212 13.24036567 2.75607327 14.11595472 2.75431263 15.01807678 C2.75100292 17.96932691 2.76204571 20.92035264 2.77294922 23.87158203 C2.77351301 25.98022455 2.7731974 28.08886747 2.77206421 30.19750977 C2.77148845 35.93691183 2.78327871 41.67623093 2.79721212 47.41561365 C2.80968247 53.4080835 2.81088706 59.40055507 2.81326294 65.39303589 C2.81948861 76.74734682 2.83591408 88.10161941 2.85596192 99.45591342 C2.87828717 112.37952962 2.88930585 125.3031476 2.89935279 138.22677827 C2.92027939 164.81787347 2.95547642 191.40893459 3 218 C25.48729315 218.07003637 47.97456836 218.12296182 70.46194839 218.15543652 C80.90289197 218.17091489 91.34376784 218.19202295 101.78466797 218.22631836 C110.88342736 218.256191 119.98213771 218.27556794 129.08094478 218.28226548 C133.90008662 218.28618136 138.71908818 218.29540436 143.53818512 218.31719017 C148.07221563 218.3375216 152.60604779 218.34384058 157.14011955 218.33932304 C158.8058346 218.34014975 160.47155614 218.34613531 162.13723183 218.35761642 C164.40881062 218.37250852 166.67963727 218.36896604 168.95123291 218.36076355 C170.22330723 218.36352893 171.49538155 218.36629431 172.80600357 218.36914349 C176.22922346 217.97350769 177.66279676 217.50673986 180 215 C180.36886363 212.15409735 180.49023257 209.70086813 180.42578125 206.859375 C180.42249313 206.0589679 180.41920502 205.25856079 180.41581726 204.43389893 C180.40006016 201.87205299 180.35603361 199.31150827 180.3125 196.75 C180.30100754 195.04037532 180.29122271 193.33073825 180.28320312 191.62109375 C180.26976549 189.97134094 180.25483882 188.32159945 180.23828125 186.671875 C180.23089432 185.90808533 180.22350739 185.14429565 180.21589661 184.35736084 C180.1551974 180.90248313 179.95690155 177.75301841 179.36010742 174.33300781 C179 171 179 171 181 165 C128.53 164.505 128.53 164.505 75 164 C75 163.67 75 163.34 75 163 C110.64 163 146.28 163 183 163 C183 181.81 183 200.62 183 220 C122.61 220 62.22 220 0 220 C0 147.4 0 74.8 0 0 Z " fill="#68BBE7" transform="translate(41,142)"/>
<path d="M0 0 C33 0 66 0 100 0 C99.67 0.66 99.34 1.32 99 2 C66.66 2 34.32 2 1 2 C1 9.92 1 17.84 1 26 C3.78171631 25.99476318 6.56343262 25.98952637 9.42944336 25.98413086 C18.59766479 25.96759618 27.76588686 25.95652927 36.93411922 25.94818783 C42.49539411 25.94295866 48.05665379 25.93586042 53.61791992 25.92456055 C58.98007419 25.91373285 64.34221378 25.90772342 69.70437813 25.90512276 C71.75500278 25.90326829 73.8056266 25.89964728 75.85624504 25.89426994 C78.71790203 25.88706107 81.57949757 25.88600899 84.44116211 25.88647461 C85.72617111 25.8810817 85.72617111 25.8810817 87.03713989 25.87557983 C92.88594784 25.88594784 92.88594784 25.88594784 94 27 C94.09868509 28.65191396 94.12798837 30.30803217 94.12939453 31.96289062 C94.13254669 33.02068726 94.13569885 34.07848389 94.13894653 35.16833496 C94.13591019 36.89485291 94.13591019 36.89485291 94.1328125 38.65625 C94.13376923 39.82885376 94.13472595 41.00145752 94.13571167 42.20959473 C94.1363937 44.69458062 94.13453784 47.17956829 94.13037109 49.66455078 C94.12502319 53.48343887 94.13031536 57.30220935 94.13671875 61.12109375 C94.13605797 63.52864609 94.13477682 65.93619837 94.1328125 68.34375 C94.13483673 69.49476196 94.13686096 70.64577393 94.13894653 71.83166504 C94.13421829 73.41835999 94.13421829 73.41835999 94.12939453 75.03710938 C94.12859894 75.97341187 94.12780334 76.90971436 94.12698364 77.87438965 C94 80 94 80 93 81 C90.13908182 81.09522418 87.30236379 81.12553326 84.44116211 81.11352539 C83.54368759 81.11367142 82.64621307 81.11381744 81.72154236 81.1139679 C78.74011866 81.11326842 75.7587566 81.10547441 72.77734375 81.09765625 C70.71611058 81.09579219 68.65487696 81.09436823 66.59364319 81.09336853 C61.1569599 81.08954237 55.72030314 81.07971126 50.28363037 81.06866455 C44.74052286 81.05845253 39.19741108 81.05387136 33.65429688 81.04882812 C22.76951769 81.03808908 11.8847652 81.02049149 1 81 C1 89.91 1 98.82 1 108 C0.67 108 0.34 108 0 108 C0 98.76 0 89.52 0 80 C30.36 80 60.72 80 92 80 C92 62.84 92 45.68 92 28 C61.64 28 31.28 28 0 28 C-1.29361994 25.41276011 -1.12948949 23.51886997 -1.1328125 20.625 C-1.13410156 19.55765625 -1.13539062 18.4903125 -1.13671875 17.390625 C-1.13285156 16.27171875 -1.12898438 15.1528125 -1.125 14 C-1.12886719 12.88109375 -1.13273437 11.7621875 -1.13671875 10.609375 C-1.13542969 9.54203125 -1.13414063 8.4746875 -1.1328125 7.375 C-1.13168457 6.39273438 -1.13055664 5.41046875 -1.12939453 4.3984375 C-1 2 -1 2 0 0 Z " fill="#96D5F4" transform="translate(114,197)"/>
<path d="M0 0 C1.95650561 0.00138269 1.95650561 0.00138269 3.95253658 0.00279331 C5.03800137 0.00151167 5.03800137 0.00151167 6.14539474 0.00020415 C8.58837104 -0.00145279 11.03127979 0.00407418 13.47424984 0.00952244 C15.21821752 0.00980429 16.96218531 0.00964662 18.70615292 0.00907993 C23.45595252 0.00879188 28.2057271 0.01468986 32.95552087 0.02165389 C37.91366179 0.02788614 42.87180323 0.02849112 47.82994747 0.0296793 C57.22577585 0.032793 66.62159266 0.0410069 76.01741594 0.05102879 C86.71130907 0.06218873 97.40520274 0.06770008 108.09910023 0.07272422 C130.10363392 0.08318948 152.10815173 0.10153544 174.11267757 0.12304783 C174.11267757 18.93304783 174.11267757 37.74304783 174.11267757 57.12304783 C171.80267757 57.12304783 169.49267757 57.12304783 167.11267757 57.12304783 C167.44267757 56.46304783 167.77267757 55.80304783 168.11267757 55.12304783 C169.43267757 55.12304783 170.75267757 55.12304783 172.11267757 55.12304783 C172.11267757 37.63304783 172.11267757 20.14304783 172.11267757 2.12304783 C149.72120288 2.07794709 127.3297648 2.04108558 104.93825626 2.01942348 C94.54211587 2.00909926 84.14600564 1.99501709 73.74988461 1.97216892 C64.69143049 1.95227007 55.63299822 1.93933974 46.57452285 1.93487084 C41.77559988 1.9322575 36.97673941 1.92609136 32.17783642 1.91158772 C27.6651813 1.8980591 23.15261469 1.89381557 18.63994122 1.89683247 C16.97984239 1.89628018 15.31974074 1.89227471 13.65965939 1.88463688 C11.40065312 1.87474932 9.14198516 1.87705602 6.88297176 1.8825388 C5.6164282 1.88069521 4.34988464 1.87885162 3.04496098 1.87695217 C-0.01028765 1.81568464 -0.01028765 1.81568464 -1.88732243 4.12304783 C-2.08080169 6.95636253 -2.14770698 9.69158726 -2.12783146 12.52578831 C-2.12954031 13.40546091 -2.13124916 14.28513352 -2.13300979 15.19146287 C-2.13631955 18.15653216 -2.12527663 21.12137809 -2.11437321 24.08642673 C-2.11380941 26.20492135 -2.11412503 28.32341636 -2.11525822 30.44191074 C-2.11583398 36.20817129 -2.10404365 41.97434928 -2.0901103 47.74059057 C-2.07764002 53.76108765 -2.07643537 59.78158646 -2.07405949 65.80209446 C-2.0678338 77.20952925 -2.05140829 88.61692589 -2.03136051 100.02434385 C-2.00903532 113.00841841 -1.9980166 125.99249476 -1.98796964 138.97658372 C-1.96704299 165.69209294 -1.93184592 192.40756825 -1.88732243 219.12304783 C-2.54732243 219.12304783 -3.20732243 219.12304783 -3.88732243 219.12304783 C-3.91064775 190.71665017 -3.92829979 162.31025394 -3.9391346 133.90384865 C-3.94429834 120.71527442 -3.95134251 107.52670613 -3.96276188 94.33813572 C-3.97270634 82.84753062 -3.97917528 71.35692983 -3.98141092 59.86632055 C-3.98271843 53.77803798 -3.98580683 47.68976771 -3.99305248 41.60148907 C-3.99980896 35.8782115 -4.00194015 30.15495137 -4.00043011 24.43167019 C-4.0007066 22.32447687 -4.00271392 20.217283 -4.0065279 18.11009312 C-4.01145933 15.24651533 -4.01032276 12.38300453 -4.00757694 9.51942539 C-4.01048978 8.67411151 -4.01340263 7.82879762 -4.01640373 6.95786816 C-3.99865397 0.17040899 -3.99865397 0.17040899 0 0 Z " fill="#47B0ED" transform="translate(45.887322425842285,141.87695217132568)"/>
<path d="M0 0 C13.65575489 -0.02313041 27.31150516 -0.04091867 40.96727562 -0.05181217 C47.30761785 -0.05703946 53.64794671 -0.06413434 59.98828125 -0.07543945 C66.10256711 -0.08627377 72.21684008 -0.092278 78.3311348 -0.09487724 C80.66841459 -0.0967305 83.00569365 -0.10034924 85.34296799 -0.10573006 C88.6067535 -0.11294767 91.87048519 -0.11399063 95.13427734 -0.11352539 C96.10891434 -0.11712067 97.08355133 -0.12071594 98.08772278 -0.12442017 C98.97395828 -0.1230455 99.86019379 -0.12167084 100.77328491 -0.12025452 C101.93197869 -0.12163721 101.93197869 -0.12163721 103.11408043 -0.12304783 C105 0 105 0 107 1 C107 19.15 107 37.3 107 56 C105.02 56 103.04 56 101 56 C101.65121826 55.50991455 102.30243652 55.0198291 102.97338867 54.51489258 C105.75926578 51.05780065 105.52271891 48.00687441 105.42578125 43.76171875 C105.42249313 42.96272659 105.41920502 42.16373444 105.41581726 41.3405304 C105.40008906 38.78896803 105.35607565 36.23872216 105.3125 33.6875 C105.30100444 31.98243266 105.29122052 30.27735287 105.28320312 28.57226562 C105.26976793 26.92707005 105.25484191 25.28188583 105.23828125 23.63671875 C105.23089432 22.87606613 105.22350739 22.11541351 105.21589661 21.33171082 C105.1550899 17.88600529 104.95569664 14.74626567 104.36010742 11.33520508 C104 8 104 8 106 2 C53.53 1.505 53.53 1.505 0 1 C0 0.67 0 0.34 0 0 Z " fill="#55AFE3" transform="translate(116,305)"/>
<path d="M0 0 C22.44 0 44.88 0 68 0 C68 18.81 68 37.62 68 57 C65.69 57 63.38 57 61 57 C61.495 56.01 61.495 56.01 62 55 C63.32 55 64.64 55 66 55 C66 37.51 66 20.02 66 2 C33.33 1.505 33.33 1.505 0 1 C0 0.67 0 0.34 0 0 Z " fill="#5FBBEE" transform="translate(152,142)"/>
<path d="M0 0 C24.42 0 48.84 0 74 0 C72.875 6.75 72.875 6.75 70 10 C70 7.36 70 4.72 70 2 C46.9 2 23.8 2 0 2 C0 3.98 0 5.96 0 8 C-0.66 8 -1.32 8 -2 8 C-1.938125 8.9075 -1.87625 9.815 -1.8125 10.75 C-2.01686856 14.29238832 -2.52653696 15.52653696 -5 18 C-5.66 18 -6.32 18 -7 18 C-6.58979123 16.68546734 -6.17131747 15.37351447 -5.75 14.0625 C-5.51796875 13.33160156 -5.2859375 12.60070312 -5.046875 11.84765625 C-3.56571704 7.81868553 -1.74339089 3.9226295 0 0 Z " fill="#4CAFE6" transform="translate(409,142)"/>
<path d="M0 0 C0.66 0 1.32 0 2 0 C2.65134925 1.56020867 3.29582964 3.12328579 3.9375 4.6875 C4.47697266 5.99267578 4.47697266 5.99267578 5.02734375 7.32421875 C5.9570312 9.88179265 6.54162625 12.3221323 7 15 C7.66 15 8.32 15 9 15 C9.25523437 15.81791016 9.25523437 15.81791016 9.515625 16.65234375 C10.85437434 20.81813292 12.31775525 24.79093194 14.1875 28.75 C15.67329284 31.97580878 16.46632252 34.38600045 16 38 C17.485 38.495 17.485 38.495 19 39 C20.203125 41.8359375 20.203125 41.8359375 21.25 45.375 C21.60578125 46.53773438 21.9615625 47.70046875 22.328125 48.8984375 C23 52 23 52 22 55 C15.69623068 40.66526079 9.3983497 26.3338859 3.6875 11.75 C3.30924072 10.78763428 2.93098145 9.82526855 2.54125977 8.83374023 C0 2.26334535 0 2.26334535 0 0 Z " fill="#85CDF4" transform="translate(244,189)"/>
<path d="M0 0 C3.3 0 6.6 0 10 0 C10 18.15 10 36.3 10 55 C8.02 55 6.04 55 4 55 C4.65121826 54.50991455 5.30243652 54.0198291 5.97338867 53.51489258 C8.75926578 50.05780065 8.52271891 47.00687441 8.42578125 42.76171875 C8.42249313 41.96272659 8.41920502 41.16373444 8.41581726 40.3405304 C8.40008906 37.78896803 8.35607565 35.23872216 8.3125 32.6875 C8.30100444 30.98243266 8.29122052 29.27735287 8.28320312 27.57226562 C8.26976793 25.92707005 8.25484191 24.28188583 8.23828125 22.63671875 C8.22720085 21.49573982 8.22720085 21.49573982 8.21589661 20.33171082 C8.15463744 16.86036591 7.94323247 13.62138061 7.42651367 10.17504883 C6.93721063 6.53258403 7.60665651 4.36041666 9 1 C6.03 1 3.06 1 0 1 C0 0.67 0 0.34 0 0 Z " fill="#48B3EF" transform="translate(213,306)"/>
<path d="M0 0 C0.33 0.66 0.66 1.32 1 2 C1.99 2 2.98 2 4 2 C4 3.32 4 4.64 4 6 C4.66 6 5.32 6 6 6 C6 7.98 6 9.96 6 12 C6.66 12 7.32 12 8 12 C8 13.32 8 14.64 8 16 C8.66 16 9.32 16 10 16 C10 17.98 10 19.96 10 22 C11.32 22.33 12.64 22.66 14 23 C14 25.97 14 28.94 14 32 C14.66 32.33 15.32 32.66 16 33 C15.34 33.66 14.68 34.32 14 35 C13.71801758 34.35039307 13.43603516 33.70078613 13.14550781 33.03149414 C11.84740406 30.04165608 10.54870566 27.05207666 9.25 24.0625 C8.8065625 23.04091797 8.363125 22.01933594 7.90625 20.96679688 C7.46796875 19.95810547 7.0296875 18.94941406 6.578125 17.91015625 C6.14564453 16.91258301 5.71316406 15.91500977 5.26757812 14.88720703 C3.78750454 11.51599166 2.25175351 8.17196614 0.69042969 4.83764648 C0 3 0 3 0 0 Z " fill="#6BC1F3" transform="translate(229,154)"/>
<path d="M0 0 C1.37487411 4.12462233 -0.25504185 6.53464496 -1.96484375 10.29296875 C-2.27700333 10.99899734 -2.5891629 11.70502594 -2.91078186 12.43244934 C-3.91065841 14.68827581 -4.92386386 16.93782755 -5.9375 19.1875 C-6.6174223 20.71510082 -7.29646989 22.24309128 -7.97460938 23.77148438 C-9.63962057 27.518921 -11.31661092 31.26078504 -13 35 C-14.09658936 31.71023192 -13.79953138 30.28696233 -13 27 C-12.34 27 -11.68 27 -11 27 C-10.75765625 25.91460937 -10.5153125 24.82921875 -10.265625 23.7109375 C-9.92772466 22.26547493 -9.58914687 20.82017061 -9.25 19.375 C-9.01410156 18.30572266 -9.01410156 18.30572266 -8.7734375 17.21484375 C-7.62947499 12.41900092 -5.93011058 9.0454819 -3 5 C-2.64141484 3.67323492 -2.2981424 2.34164079 -2 1 C-1.34 0.67 -0.68 0.34 0 0 Z " fill="#6AC2F1" transform="translate(436,251)"/>
<path d="M0 0 C3.4733715 3.85576103 4.85113638 8.5096408 6.5625 13.3125 C7.01786133 14.55676758 7.01786133 14.55676758 7.48242188 15.82617188 C9.17901915 20.50937177 10.6960184 25.19278425 12 30 C5.23423898 24.69710623 4.57661144 17.05823627 3 9 C2.34 9 1.68 9 1 9 C1 7.68 1 6.36 1 5 C0.34 5 -0.32 5 -1 5 C-0.67 3.35 -0.34 1.7 0 0 Z " fill="#8FD1EF" transform="translate(326,194)"/>
<path d="M0 0 C2.11921697 2.11921697 2.81184978 3.60931398 3.9453125 6.3515625 C4.29980469 7.20234375 4.65429688 8.053125 5.01953125 8.9296875 C5.38433594 9.81914062 5.74914062 10.70859375 6.125 11.625 C6.68380859 12.97078125 6.68380859 12.97078125 7.25390625 14.34375 C8.17370799 16.56070804 9.08886662 18.77946854 10 21 C12.16343011 18.96731398 12.16343011 18.96731398 14 16 C14 18.64 14 21.28 14 24 C12.02 24 10.04 24 8 24 C7.70996094 23.11248047 7.70996094 23.11248047 7.4140625 22.20703125 C5.44864359 16.00955782 5.44864359 16.00955782 3 10 C2.34 9.67 1.68 9.34 1 9 C0.5859375 6.93359375 0.5859375 6.93359375 0.375 4.4375 C0.30023438 3.61121094 0.22546875 2.78492188 0.1484375 1.93359375 C0.09945313 1.29550781 0.05046875 0.65742188 0 0 Z " fill="#8DD2F7" transform="translate(346,244)"/>
<path d="M0 0 C2.8285302 4.2427953 4.66515094 8.83015533 6.6875 13.5 C7.11611328 14.46292969 7.54472656 15.42585937 7.98632812 16.41796875 C8.38658203 17.34222656 8.78683594 18.26648438 9.19921875 19.21875 C9.56877686 20.06373047 9.93833496 20.90871094 10.3190918 21.77929688 C11 24 11 24 10 27 C7.36574259 24.68754108 6.22987689 22.57679825 5 19.3125 C4.66484375 18.42691406 4.3296875 17.54132813 3.984375 16.62890625 C3.49710937 15.32759766 3.49710937 15.32759766 3 14 C2.69578125 13.26652344 2.3915625 12.53304687 2.078125 11.77734375 C0.4097371 7.6929413 -0.3306948 4.40926404 0 0 Z " fill="#73C6F2" transform="translate(306,145)"/>
<path d="M0 0 C3.715124 2.31024517 4.85930997 4.39415325 6.25 8.5 C6.58515625 9.4590625 6.9203125 10.418125 7.265625 11.40625 C8 14 8 14 8 17 C8.66 17 9.32 17 10 17 C11.4783226 19.95664519 11.06032783 22.74229737 11 26 C8.26314716 21.89472074 6.39886025 17.49043993 4.375 13 C3.95476562 12.08476562 3.53453125 11.16953125 3.1015625 10.2265625 C2.70453125 9.34742188 2.3075 8.46828125 1.8984375 7.5625 C1.53411621 6.75941406 1.16979492 5.95632812 0.79443359 5.12890625 C0 3 0 3 0 0 Z " fill="#76C9F6" transform="translate(267,244)"/>
<path d="M0 0 C0.66 0 1.32 0 2 0 C2.65134925 1.56020867 3.29582964 3.12328579 3.9375 4.6875 C4.47697266 5.99267578 4.47697266 5.99267578 5.02734375 7.32421875 C5.9570312 9.88179265 6.54162625 12.3221323 7 15 C7.66 15 8.32 15 9 15 C9.50559908 16.43554025 10.0042749 17.8735202 10.5 19.3125 C10.7784375 20.11300781 11.056875 20.91351563 11.34375 21.73828125 C12 24 12 24 12 27 C11.34 27 10.68 27 10 27 C8.32776718 22.87723451 6.66315937 18.75143325 5 14.625 C4.28457031 12.8615625 4.28457031 12.8615625 3.5546875 11.0625 C3.10351562 9.94101563 2.65234375 8.81953125 2.1875 7.6640625 C1.76855469 6.62717285 1.34960938 5.5902832 0.91796875 4.52197266 C0 2 0 2 0 0 Z " fill="#84CFEE" transform="translate(244,189)"/>
<path d="M0 0 C1.00767752 3.2171038 0.96969457 5.72953704 0.5625 9.0625 C0.24245906 11.75651553 0 14.28235441 0 17 C-2.31 18.32 -4.62 19.64 -7 21 C-6.26951699 16.31196344 -4.63363115 12.09114445 -2.9375 7.6875 C-2.51500977 6.57665039 -2.51500977 6.57665039 -2.08398438 5.44335938 C-1.39281425 3.62757345 -0.69688311 1.81360101 0 0 Z " fill="#5EBDF3" transform="translate(376,219)"/>
<path d="M0 0 C0.66 0.33 1.32 0.66 2 1 C1.32512263 5.81919471 -0.57965909 9.91883866 -2.5625 14.3125 C-2.89185547 15.05306641 -3.22121094 15.79363281 -3.56054688 16.55664062 C-4.36917123 18.37311562 -5.18397116 20.18683931 -6 22 C-7.12758089 18.61725734 -6.81750262 17.23221777 -6.0625 13.8125 C-5.86785156 12.91144531 -5.67320312 12.01039063 -5.47265625 11.08203125 C-5.23869141 10.05142578 -5.23869141 10.05142578 -5 9 C-4.34 9 -3.68 9 -3 9 C-3 7.68 -3 6.36 -3 5 C-2.34 5 -1.68 5 -1 5 C-0.67 3.35 -0.34 1.7 0 0 Z " fill="#82CFF5" transform="translate(448,220)"/>
<path d="M0 0 C0.33 0 0.66 0 1 0 C1.73922813 7.88510004 -2.38514354 14.01315919 -7 20 C-8 18 -8 18 -7.37915039 16.12060547 C-7.03875732 15.37697754 -6.69836426 14.63334961 -6.34765625 13.8671875 C-5.98349609 13.06152344 -5.61933594 12.25585938 -5.24414062 11.42578125 C-4.85419922 10.58402344 -4.46425781 9.74226562 -4.0625 8.875 C-3.48338867 7.60076172 -3.48338867 7.60076172 -2.89257812 6.30078125 C-1.93534092 4.19722296 -0.97091277 2.09727268 0 0 Z " fill="#5EBCF1" transform="translate(368,240)"/>
<path d="M0 0 C1.21474475 3.64423425 0.70193132 4.28488743 -0.87109375 7.66796875 C-1.48500977 9.00698242 -1.48500977 9.00698242 -2.11132812 10.37304688 C-2.54896484 11.30181641 -2.98660156 12.23058594 -3.4375 13.1875 C-3.87126953 14.12787109 -4.30503906 15.06824219 -4.75195312 16.03710938 C-5.82600195 18.36224805 -6.90894188 20.6828064 -8 23 C-9.15941038 19.52176885 -8.70820884 17.54104422 -8 14 C-7.34 14 -6.68 14 -6 14 C-5.88785156 13.27425781 -5.77570313 12.54851562 -5.66015625 11.80078125 C-4.97038613 8.87436007 -3.94489186 6.77712191 -2.4375 4.1875 C-1.98246094 3.39730469 -1.52742188 2.60710937 -1.05859375 1.79296875 C-0.70925781 1.20128906 -0.35992187 0.60960937 0 0 Z " fill="#75C3F1" transform="translate(475,159)"/>
<path d="M0 0 C0.66 0 1.32 0 2 0 C2 0.66 2 1.32 2 2 C1.34 2 0.68 2 0 2 C0 3.98 0 5.96 0 8 C-0.66 8 -1.32 8 -2 8 C-1.938125 8.9075 -1.87625 9.815 -1.8125 10.75 C-2.01686856 14.29238832 -2.52653696 15.52653696 -5 18 C-5.66 18 -6.32 18 -7 18 C-5.06375702 11.79522136 -2.74390859 5.89174281 0 0 Z " fill="#76C3F1" transform="translate(409,142)"/>
<path d="M0 0 C2.13120262 3.19680393 3.62001109 6.48595891 5.125 10 C5.40214844 10.6290625 5.67929687 11.258125 5.96484375 11.90625 C7.20009858 14.7783696 8 16.83945116 8 20 C7.01 20 6.02 20 5 20 C4.34 16.37 3.68 12.74 3 9 C2.34 9 1.68 9 1 9 C0.67 6.03 0.34 3.06 0 0 Z " fill="#6CC1F0" transform="translate(338,224)"/>
<path d="M0 0 C1.39214652 4.17643955 -0.29335734 6.83437793 -1.9375 10.6875 C-2.22818359 11.38939453 -2.51886719 12.09128906 -2.81835938 12.81445312 C-3.53710313 14.54650775 -4.26745331 16.27373781 -5 18 C-6.15941038 14.52176885 -5.70820884 12.54104422 -5 9 C-4.34 9 -3.68 9 -3 9 C-3.061875 7.88625 -3.12375 6.7725 -3.1875 5.625 C-3.125625 4.42875 -3.06375 3.2325 -3 2 C-2.01 1.34 -1.02 0.68 0 0 Z " fill="#8BD1F2" transform="translate(416,298)"/>
<path d="M0 0 C1.15049408 3.45148225 0.81766391 4.10599532 -0.4375 7.375 C-1.64035747 10.7265983 -2.34883384 13.39538361 -2 17 C-3.65 17.33 -5.3 17.66 -7 18 C-5.06375702 11.79522136 -2.74390859 5.89174281 0 0 Z " fill="#8FD3F8" transform="translate(398,167)"/>
<path d="M0 0 C0.33 0.66 0.66 1.32 1 2 C1.99 2 2.98 2 4 2 C4 3.32 4 4.64 4 6 C4.66 6 5.32 6 6 6 C6 8.64 6 11.28 6 14 C2.59801074 9.95001278 0 5.36373351 0 0 Z " fill="#7EC9F6" transform="translate(229,154)"/>
<path d="M0 0 C0.33 0.66 0.66 1.32 1 2 C1.66 2 2.32 2 3 2 C3.70133599 3.57725347 4.385583 5.16211333 5.0625 6.75 C5.44535156 7.63171875 5.82820313 8.5134375 6.22265625 9.421875 C7.04600008 12.15256309 6.9773992 13.36901347 6 16 C4.99303432 13.89915791 3.9946411 11.79420511 3 9.6875 C2.443125 8.51574219 1.88625 7.34398437 1.3125 6.13671875 C0 3 0 3 0 0 Z " fill="#91D3F4" transform="translate(302,327)"/>
<path d="M0 0 C1.305239 3.91571701 0.32239848 5.03892997 -1.4375 8.6875 C-1.91058594 9.68136719 -2.38367188 10.67523438 -2.87109375 11.69921875 C-3.42990234 12.83810547 -3.42990234 12.83810547 -4 14 C-4.33 14 -4.66 14 -5 14 C-5.383042 8.76509271 -4.3382052 5.58647943 -2 1 C-1.34 0.67 -0.68 0.34 0 0 Z " fill="#76C8F4" transform="translate(436,251)"/>
<path d="M0 0 C0.99 0 1.98 0 3 0 C3.53122363 1.76774419 4.04964073 3.53934083 4.5625 5.3125 C4.85253906 6.29863281 5.14257812 7.28476562 5.44140625 8.30078125 C6 11 6 11 5 14 C4.15973604 12.23244474 3.32801278 10.46082737 2.5 8.6875 C2.0359375 7.70136719 1.571875 6.71523438 1.09375 5.69921875 C0 3 0 3 0 0 Z " fill="#9DDBF7" transform="translate(296,313)"/>
<path d="M0 0 C0.66 0 1.32 0 2 0 C4.75702189 4.79482068 5.53328373 8.58609132 6 14 C2.59801074 9.95001278 0 5.36373351 0 0 Z " fill="#9ADAF4" transform="translate(255,216)"/>
<path d="M0 0 C0.33 0 0.66 0 1 0 C1 2.97 1 5.94 1 9 C0.01 9.33 -0.98 9.66 -2 10 C-2 10.66 -2 11.32 -2 12 C-2.66 12 -3.32 12 -4 12 C-2.66666667 8 -1.33333333 4 0 0 Z " fill="#84D1F4" transform="translate(386,195)"/>
<path d="M0 0 C1.98 0 3.96 0 6 0 C5.5205537 4.21912747 4.83374881 6.79663178 2 10 C2.06510417 7.98177083 2.13020833 5.96354167 2.1953125 3.9453125 C2.18331689 1.76136355 2.18331689 1.76136355 0 0 Z " fill="#8CCFF2" transform="translate(477,142)"/>
<path d="M0 0 C2.24956302 2.24956302 3.00510965 4.06323263 4.1875 7 C4.55230469 7.886875 4.91710937 8.77375 5.29296875 9.6875 C6 12 6 12 5 14 C0.65757571 9.65757571 0.2555331 5.86448454 0 0 Z " fill="#67BEE8" transform="translate(332,210)"/>
<path d="M0 0 C0.66 0 1.32 0 2 0 C2.69906942 1.59915881 3.38389468 3.20455045 4.0625 4.8125 C4.63677734 6.15248047 4.63677734 6.15248047 5.22265625 7.51953125 C6 10 6 10 5 13 C4.16209211 11.21046815 3.32980604 9.41830305 2.5 7.625 C1.80390625 6.12839844 1.80390625 6.12839844 1.09375 4.6015625 C0 2 0 2 0 0 Z " fill="#6BC0EF" transform="translate(244,189)"/>
<path d="M0 0 C2.16321167 3.24481751 3.6314591 6.35055759 5 10 C4.67 10.99 4.34 11.98 4 13 C1.04952165 8.38987758 -0.5497272 5.63470383 0 0 Z " fill="#80CAF2" transform="translate(306,145)"/>
<path d="M0 0 C0.33 0 0.66 0 1 0 C1 3.3 1 6.6 1 10 C-0.32 10 -1.64 10 -3 10 C-2.01 6.7 -1.02 3.4 0 0 Z " fill="#88D1F2" transform="translate(380,209)"/>
<path d="M0 0 C2.31966166 2.84685749 3.91581154 5.4763875 5 9 C4.67 9.99 4.34 10.98 4 12 C3.34 12 2.68 12 2 12 C2 10.02 2 8.04 2 6 C1.34 6 0.68 6 0 6 C0 4.02 0 2.04 0 0 Z " fill="#97D8F9" transform="translate(317,172)"/>
<path d="M0 0 C0.66 0 1.32 0 2 0 C1.54917531 1.46067199 1.08906463 2.91848032 0.625 4.375 C0.36976563 5.18710937 0.11453125 5.99921875 -0.1484375 6.8359375 C-1 9 -1 9 -3 11 C-3 9.35 -3 7.7 -3 6 C-2.34 6 -1.68 6 -1 6 C-1.0309375 4.7934375 -1.0309375 4.7934375 -1.0625 3.5625 C-1 1 -1 1 0 0 Z " fill="#89D2F2" transform="translate(402,330)"/>
<path d="M0 0 C0.66 0 1.32 0 2 0 C1.54917531 1.46067199 1.08906463 2.91848032 0.625 4.375 C0.36976563 5.18710938 0.11453125 5.99921875 -0.1484375 6.8359375 C-1 9 -1 9 -3 11 C-3 9.35 -3 7.7 -3 6 C-2.34 6 -1.68 6 -1 6 C-1.0309375 4.7934375 -1.0309375 4.7934375 -1.0625 3.5625 C-1 1 -1 1 0 0 Z " fill="#A0DDF4" transform="translate(453,210)"/>
<path d="M0 0 C0.33 0.66 0.66 1.32 1 2 C0.22265625 4.1640625 0.22265625 4.1640625 -0.9375 6.625 C-1.31777344 7.44226563 -1.69804687 8.25953125 -2.08984375 9.1015625 C-2.39019531 9.72804688 -2.69054687 10.35453125 -3 11 C-4.17841928 7.46474216 -3.91399027 5.5797952 -3 2 C-2.01 1.34 -1.02 0.68 0 0 Z " fill="#9FDEF6" transform="translate(408,319)"/>
<path d="M0 0 C1.9375 1.125 1.9375 1.125 4 3 C4.75 6.1875 4.75 6.1875 5 9 C4.34 9 3.68 9 3 9 C0 3.375 0 3.375 0 0 Z " fill="#8ACFF5" transform="translate(267,244)"/>
<path d="M0 0 C0.66 0 1.32 0 2 0 C1.5206753 4.31392226 0.2542015 6.16569547 -3 9 C-2.01 6.03 -1.02 3.06 0 0 Z " fill="#83CAF2" transform="translate(363,251)"/>
<path d="M0 0 C2.26185454 2.26185454 3.03921617 3.96983561 4 7 C3.67 7.99 3.34 8.98 3 10 C2.34 9.67 1.68 9.34 1 9 C0.5859375 6.93359375 0.5859375 6.93359375 0.375 4.4375 C0.30023438 3.61121094 0.22546875 2.78492188 0.1484375 1.93359375 C0.09945313 1.29550781 0.05046875 0.65742188 0 0 Z " fill="#6FC1F2" transform="translate(346,244)"/>
<path d="M0 0 C0.66 0.33 1.32 0.66 2 1 C0.515 4.96 0.515 4.96 -1 9 C-1.33 9 -1.66 9 -2 9 C-2 6.69 -2 4.38 -2 2 C-1.34 2 -0.68 2 0 2 C0 1.34 0 0.68 0 0 Z " fill="#7ECDF0" transform="translate(457,200)"/>
<path d="M0 0 C0.33 0 0.66 0 1 0 C0.67 2.64 0.34 5.28 0 8 C-0.99 8.33 -1.98 8.66 -3 9 C-2.01 6.03 -1.02 3.06 0 0 Z " fill="#92D7F6" transform="translate(390,186)"/>
<path d="M0 0 C0.6875 1.75 0.6875 1.75 1 4 C-0.3125 6.25 -0.3125 6.25 -2 8 C-2.66 8 -3.32 8 -4 8 C-3.67 6.35 -3.34 4.7 -3 3 C-2.01 3 -1.02 3 0 3 C0 2.01 0 1.02 0 0 Z " fill="#5CBDF5" transform="translate(406,152)"/>
<path d="" fill="#FFFFFF" transform="translate(0,0)"/>
<path d="" fill="#FFFFFF" transform="translate(0,0)"/>
<path d="" fill="#FFFFFF" transform="translate(0,0)"/>
<path d="" fill="#FFFFFF" transform="translate(0,0)"/>
<path d="" fill="#FFFFFF" transform="translate(0,0)"/>
<path d="" fill="#FFFFFF" transform="translate(0,0)"/>
<path d="" fill="#FFFFFF" transform="translate(0,0)"/>
<path d="" fill="#FFFFFF" transform="translate(0,0)"/>
<path d="" fill="#FFFFFF" transform="translate(0,0)"/>
<path d="" fill="#FFFFFF" transform="translate(0,0)"/>
<path d="" fill="#FFFFFF" transform="translate(0,0)"/>
<path d="" fill="#FFFFFF" transform="translate(0,0)"/>
<path d="" fill="#FFFFFF" transform="translate(0,0)"/>
<path d="" fill="#FFFFFF" transform="translate(0,0)"/>
<path d="" fill="#FFFFFF" transform="translate(0,0)"/>
<path d="" fill="#FFFFFF" transform="translate(0,0)"/>
<path d="" fill="#FFFFFF" transform="translate(0,0)"/>
<path d="" fill="#FFFFFF" transform="translate(0,0)"/>
<path d="" fill="#FFFFFF" transform="translate(0,0)"/>
<path d="" fill="#FFFFFF" transform="translate(0,0)"/>
<path d="" fill="#FFFFFF" transform="translate(0,0)"/>
<path d="" fill="#FFFFFF" transform="translate(0,0)"/>
<path d="" fill="#FFFFFF" transform="translate(0,0)"/>
<path d="" fill="#FFFFFF" transform="translate(0,0)"/>
<path d="" fill="#FFFFFF" transform="translate(0,0)"/>
<path d="" fill="#FFFFFF" transform="translate(0,0)"/>
<path d="" fill="#FFFFFF" transform="translate(0,0)"/>
<path d="" fill="#FFFFFF" transform="translate(0,0)"/>
<path d="" fill="#FFFFFF" transform="translate(0,0)"/>
<path d="" fill="#FFFFFF" transform="translate(0,0)"/>
<path d="" fill="#FFFFFF" transform="translate(0,0)"/>
<path d="" fill="#FFFFFF" transform="translate(0,0)"/>
<path d="" fill="#FFFFFF" transform="translate(0,0)"/>
<path d="" fill="#FFFFFF" transform="translate(0,0)"/>
<path d="" fill="#FFFFFF" transform="translate(0,0)"/>
<path d="" fill="#FFFFFF" transform="translate(0,0)"/>
<path d="" fill="#FFFFFF" transform="translate(0,0)"/>
<path d="" fill="#FFFFFF" transform="translate(0,0)"/>
<path d="" fill="#FFFFFF" transform="translate(0,0)"/>
<path d="" fill="#FFFFFF" transform="translate(0,0)"/>
<path d="" fill="#FFFFFF" transform="translate(0,0)"/>
<path d="" fill="#FFFFFF" transform="translate(0,0)"/>
<path d="" fill="#FFFFFF" transform="translate(0,0)"/>
<path d="" fill="#FFFFFF" transform="translate(0,0)"/>
<path d="" fill="#FFFFFF" transform="translate(0,0)"/>
<path d="" fill="#FFFFFF" transform="translate(0,0)"/>
<path d="" fill="#FFFFFF" transform="translate(0,0)"/>
<path d="" fill="#FFFFFF" transform="translate(0,0)"/>
<path d="" fill="#FFFFFF" transform="translate(0,0)"/>
<path d="" fill="#FFFFFF" transform="translate(0,0)"/>
<path d="" fill="#FFFFFF" transform="translate(0,0)"/>
<path d="" fill="#FFFFFF" transform="translate(0,0)"/>
<path d="" fill="#FFFFFF" transform="translate(0,0)"/>
<path d="" fill="#FFFFFF" transform="translate(0,0)"/>
<path d="" fill="#FFFFFF" transform="translate(0,0)"/>
<path d="" fill="#FFFFFF" transform="translate(0,0)"/>
<path d="" fill="#FFFFFF" transform="translate(0,0)"/>
<path d="" fill="#FFFFFF" transform="translate(0,0)"/>
<path d="" fill="#FFFFFF" transform="translate(0,0)"/>
<path d="" fill="#FFFFFF" transform="translate(0,0)"/>
<path d="" fill="#FFFFFF" transform="translate(0,0)"/>
<path d="" fill="#FFFFFF" transform="translate(0,0)"/>
<path d="" fill="#FFFFFF" transform="translate(0,0)"/>
<path d="" fill="#FFFFFF" transform="translate(0,0)"/>
<path d="" fill="#FFFFFF" transform="translate(0,0)"/>
</svg>
